<?xml version="1.0" encoding="UTF-8" standalone="no"?><!DOCTYPE svg PUBLIC "-//W3C//DTD SVG 1.1//EN" "http://www.w3.org/Graphics/SVG/1.1/DTD/svg11.dtd"><svg width="100%" height="100%" viewBox="0 0 2420 3644" version="1.1" xmlns="http://www.w3.org/2000/svg" xmlns:xlink="http://www.w3.org/1999/xlink" xml:space="preserve" xmlns:serif="http://www.serif.com/" style="fill-rule:evenodd;clip-rule:evenodd;stroke-linejoin:round;stroke-miterlimit:2;"><path d="M2175.26,3641.22c58.876,-10.046 79.957,-31.72 77.244,-79.42c-1.074,-19.159 -6.033,-39.435 -14.765,-60.544c-7.573,-18.297 -18.17,-39.208 -19.866,-39.208c-0.749,0 -6.104,2.458 -11.897,5.482c-22.988,11.982 -89.028,30.618 -129.098,36.439c-31.042,4.493 -78.177,3.744 -101.01,-1.611c-17.633,-4.125 -18.566,-4.139 -18.566,-0.24c0,4.875 7.743,25.249 15.316,40.283c26.196,51.981 74.405,88.83 129.254,98.763c16.758,3.052 55.726,3.052 73.388,0.056Zm-1203.96,-84.393c45.384,-3.278 92.928,-11.332 141.25,-23.921c29.544,-7.686 76.213,-22.296 92.575,-28.951c14.383,-5.864 13.423,-6.443 24.076,14.581l7.63,15.006l10.215,0.508c23.426,1.116 54.426,-10.568 70.392,-26.534c11.911,-11.911 16.602,-23.342 16.715,-40.65c0.113,-15.952 -1.441,-22.508 -5.285,-22.508c-1.653,0 -14.072,2.854 -27.594,6.344c-54.143,13.96 -95.669,19.739 -143.539,19.866c-33.048,0.113 -51.486,-1.597 -77.795,-7.192c-27.75,-5.92 -58.467,-18.213 -82.387,-32.978l-9.17,-5.665l-10.936,3.645c-50.639,16.842 -123.023,55.655 -151.465,81.243c-9.354,8.435 -17.803,20.318 -17.803,25.093c0,1.597 2.345,4.352 5.228,6.118c21.716,13.381 93.493,20.657 157.893,15.995Zm1107.35,-87.418c41.243,-7.389 101.236,-25.8 116.128,-35.591c20.727,-13.663 29.318,-36.821 29.318,-79.011c0,-38.883 -3.829,-64.373 -27.368,-181.631c-17.351,-86.414 -25.645,-123.772 -40.297,-181.815c-51.472,-203.601 -127.064,-421.954 -193.697,-559.431c-18.453,-38.107 -30.788,-60.502 -47.771,-86.839c-7.107,-11.034 -16.446,-26.732 -20.77,-34.927c-4.295,-8.181 -8.308,-15.161 -8.915,-15.514c-0.594,-0.353 -10.795,2.572 -22.664,6.485c-207.628,68.513 -432.057,76.03 -644.828,21.604c-37.485,-9.608 -69.53,-19.456 -108.188,-33.26c-15.867,-5.68 -29.685,-10.314 -30.745,-10.314c-1.385,0 -2.091,17.619 -2.727,68.696c-1.215,99.695 -3.744,130.031 -32.469,390.941c-28.597,259.709 -38.445,385.784 -40.438,518.316c-0.932,60.6 1.004,137.731 3.617,144.527c1.329,3.448 23.681,16.164 39.915,22.72c31.424,12.66 65.277,18.312 110.194,18.354c35.083,0.042 62.918,-2.854 100.445,-10.441c39.604,-8.012 99.272,-25.673 106.251,-31.466c1.767,-1.47 2.233,-8.336 2.233,-32.625c0,-112.609 24.344,-285.607 66.831,-475.094c15.782,-70.307 36.566,-148.964 53.493,-202.274l4.776,-15.062l-8.577,-21.123c-9.184,-22.592 -20.84,-56.587 -22.592,-65.983c-2.12,-11.304 3.235,-5.85 17.633,17.972c48.944,80.975 139.992,239.095 200.592,348.342c85.185,153.627 133.846,256.346 179.71,379.341c19.343,51.868 28.979,69.473 50.54,92.193c23.228,24.514 48.011,37.866 82.359,44.351c16.348,3.095 67.509,2.261 88.011,-1.441Zm-109.25,-1108.84c-0.41,0.658 -0.724,1.38 -0.928,2.142c-0.328,-1.071 -0.417,-1.723 -0.242,-1.895c0.085,-0.085 0.484,-0.167 1.17,-0.247Zm163.28,-25.129c30.788,-2.26 34.32,-3.476 41.3,-14.327c8.647,-13.423 31.395,-59.046 34.955,-70.067c10.018,-31.041 -6.881,-69.374 -40.127,-91.062c-14.948,-9.735 -23.398,-8.238 -36.622,6.457c-18.722,20.826 -28.132,58.678 -17.408,70.095c2.756,2.953 6.062,4.21 13.027,4.987c11.685,1.329 18.651,5.497 21.816,13.084c3.207,7.672 0.862,16.22 -6.033,22.027c-7.206,6.062 -15.161,5.539 -29.332,-1.879c-21.703,-11.402 -30.025,-23.765 -31.254,-46.471c-1.611,-29.332 11.331,-60.501 34.503,-83.122c5.694,-5.567 8.633,-9.551 7.687,-10.427c-0.848,-0.806 -7.687,-2.303 -15.203,-3.349c-54.666,-7.63 -100.855,-30.745 -135.938,-68.032c-6.725,-7.163 -15.188,-17.209 -18.82,-22.338c-3.631,-5.157 -7.502,-9.354 -8.647,-9.354c-2.543,0 -12.999,13.762 -20.12,26.521c-13.846,24.726 -21.095,48.435 -23.793,77.838c-4.409,48.053 9.127,105.856 40.014,170.751l6.64,13.96l8.421,1.709c24.868,5.044 74.588,10.837 110.462,12.872c31.367,1.78 41.752,1.794 64.472,0.127Zm-568.319,-17.732c77.555,-4.55 156.297,-17.181 226.604,-36.369c24.726,-6.753 62.819,-18.452 75.422,-23.171c10.413,-3.9 10.498,-4.225 5.75,-22.409c-4.083,-15.599 -10.526,-57.577 -13.083,-85.157c-2.36,-25.588 -2.445,-117.668 -0.127,-144.669c1.172,-13.55 1.102,-18.976 -0.226,-20.374c-1.413,-1.456 -8.379,-0.071 -29.855,6.005c-117.174,33.062 -276.071,59.201 -322.316,53.041c-51.345,-6.825 -76.397,-36.793 -82.656,-98.848c-2.204,-22.056 -2.289,-110.251 -0.099,-148.159c5.426,-95.259 22.678,-287.869 31.48,-351.747c7.517,-54.652 16.362,-81.102 31.904,-95.414c9.269,-8.549 14.355,-10.71 35.069,-14.85c32.836,-6.584 94.029,-34.631 134.623,-61.717c48.802,-32.553 80.791,-63.991 111.225,-109.289c22.932,-34.136 37.612,-68.965 38.558,-91.515c0.396,-8.831 0.142,-9.495 -5.227,-13.988c-7.22,-6.061 -27.015,-17.506 -42.967,-24.839c-15.288,-7.036 -49.58,-20.897 -55.132,-22.296c-6.246,-1.554 -9.17,3.066 -14.342,22.677c-31.79,120.297 -105.347,185.418 -209.465,185.418c-36.129,0 -69.586,-6.669 -105.602,-21.024c-34.489,-13.762 -68.738,-35.394 -90.992,-57.492c-7.573,-7.517 -14.214,-11.967 -28.922,-19.371c-10.498,-5.284 -24.359,-12.971 -30.774,-17.096c-6.429,-4.112 -12.674,-7.107 -13.903,-6.627c-4.79,1.837 -9.82,39.915 -8.28,62.663c2.854,42.077 19.188,77.315 50.004,107.82c8.11,8.04 15.556,16.192 16.573,18.114c2.303,4.394 2.388,33.203 0.17,55.386c-0.905,9.156 -5.935,51.36 -11.191,93.79c-14.086,113.91 -18.537,156.989 -24.26,234.644c-0.989,13.253 -2.359,77.625 -3.066,143.044c-1.37,126.838 -1.737,132.687 -9.862,154.602c-4.323,11.67 -15.528,23.482 -24.683,26.026c-27.411,7.573 -78.559,-7.644 -148.272,-44.098c-12.575,-6.584 -23.596,-11.981 -24.5,-11.981c-0.876,0 -1.611,2.741 -1.611,6.104c0,7.954 9.071,78.417 20.233,157.032c13.903,97.844 18.015,123.305 20.261,125.495c2.967,2.883 45.101,19.442 79.237,31.127c97.675,33.472 195.407,52.984 297.321,59.357c30.533,1.935 95.527,2.006 126.979,0.155Zm602.413,-212.108c7.347,-0.014 8.364,-0.579 18.269,-10.06c64.302,-61.504 152.864,-232.552 221.277,-427.38c14.511,-41.37 14.652,-41.992 11.459,-54.313c-8.181,-31.55 -39.392,-85.849 -81.327,-141.49c-36.369,-48.223 -68.372,-84.393 -117.4,-132.63c-86.188,-84.79 -181.221,-156.015 -288.829,-216.46c-28.301,-15.909 -92.476,-47.884 -96.093,-47.87c-2.543,0 -3.391,2.487 -5.737,16.913c-9.184,56.46 -38.968,108.272 -91.43,159.137c-28.202,27.312 -57.025,48.803 -93.789,69.912c-36.553,20.982 -89.127,43.108 -112.568,47.389c-7.955,1.441 -16.164,3.716 -18.241,5.044c-8.138,5.228 -15.584,28.923 -21.066,67.227c-8.563,59.71 -25.122,255.089 -30.576,360.818c-3.094,59.879 -1.06,142.153 3.985,161.525c5.891,22.62 16.319,35.478 32.907,40.635c27.905,8.647 126.385,-3.899 244.336,-31.098c37.471,-8.661 84.563,-21.053 107.636,-28.357c13.819,-4.366 12.137,-0.792 16.856,-35.832c10.894,-81.13 31.862,-174.086 56.362,-249.847c3.066,-9.495 5.567,-18.283 5.567,-19.527c0,-1.37 -5.977,-4.775 -14.85,-8.477c-36.552,-15.189 -67.467,-34.998 -90.512,-58c-32.596,-32.526 -44.21,-61.081 -13.013,-32.045c25.164,23.44 58.594,42.797 99.088,57.392c26.521,9.552 52.151,16.461 108.357,29.22c25.56,5.807 53.762,12.391 62.677,14.623c20.77,5.214 70.053,21.519 70.053,23.186c0,0.693 -5.609,3.264 -12.462,5.709c-25.235,9.014 -28.202,10.271 -38.7,16.545c-48.025,28.71 -88.279,90.78 -117.569,181.263c-8.944,27.623 -19.018,67.369 -24.33,95.952l-3.533,19.032l4.409,9.099c7.954,16.334 24.825,39.986 38.318,53.705c27.834,28.301 62.31,46.824 102.493,55.048c16.291,3.334 41.074,5.538 52.165,4.662c4.437,-0.353 11.544,-0.635 15.811,-0.65Zm-981.839,-145.559c3.25,-3.249 6.768,-15.867 8.944,-32.045c2.345,-17.478 4.747,-88.449 4.818,-142.239c0.127,-92.984 7.813,-176.459 33.006,-358.387c11.091,-80.042 13.634,-102.069 13.634,-117.965l0,-12.702l-12.066,-12.222c-16.715,-16.926 -25.107,-28.611 -35.379,-49.169c-18.905,-37.867 -23.879,-84.182 -13.96,-129.932c1.653,-7.602 2.402,-14.426 1.653,-15.161c-0.749,-0.749 -15.443,0.622 -32.653,3.052c-55.923,7.87 -115.732,13.945 -188.865,19.187c-38.262,2.741 -170.016,3.787 -208.985,1.653c-82.585,-4.535 -151.14,-14.51 -206.456,-30.038c-22.197,-6.245 -29.728,-7.927 -29.728,-6.655c0,0.438 3.928,9.014 8.76,19.074c24.119,50.314 31.155,98.184 22.537,153.274c-10.4,66.591 -46.853,137.124 -102.55,198.487c-8.435,9.283 -14.836,17.365 -14.228,17.972c4.888,4.847 116.467,7.079 161.016,3.208c102.069,-8.873 193.909,-28.555 305.361,-65.433c19.893,-6.584 46.174,-15.768 58.424,-20.416l22.253,-8.45l4.508,-10.653c6.64,-15.683 17.336,-31.946 21.024,-31.946c3.801,0 3.801,0.904 0.014,19.512c-2.953,14.44 -6.288,39.237 -9.763,72.412c-8.831,84.338 -3.872,208.293 15.358,382.803c7.192,65.376 9.749,84.648 11.402,86.273c3.179,3.123 40.452,23.963 64.811,36.213c29.912,15.034 50.724,23.568 70.717,28.965c16.234,4.38 23.002,4.719 26.393,1.328Zm878.581,-289.397c2.535,0.803 3.994,1.516 4.212,2.094c0.37,0.973 -1.144,3.26 -3.855,6.002c1.137,-2.717 1.137,-5.816 -0.357,-8.096Zm-1667.56,-207.923c6.076,-2.317 37.527,-33.443 52.278,-51.727c57.534,-71.38 87.121,-153.09 80.65,-222.733c-1.046,-11.246 -3.377,-26.492 -5.157,-33.867c-3.42,-14.115 -14.582,-44.182 -18.255,-49.212c-3.547,-4.832 -5.878,-1.385 -5.878,8.703c0,22.282 -8.464,50.329 -21.604,71.593c-6.923,11.204 -6.98,11.36 -8.873,33.755c-7.375,87.022 -32.992,151.818 -76.594,193.669c-12.886,12.377 -33.19,26.972 -46.005,33.076c-9.099,4.338 -7.926,7.743 3.801,11.035c23.313,6.542 38.445,8.435 45.637,5.708Zm-93.267,-24.712c60.6,-15.951 104.231,-60.741 127.064,-130.469c6.288,-19.173 12.957,-50.201 14.582,-67.82c1.314,-14.228 0.31,-14.595 -13.593,-5.002c-9.834,6.782 -14.708,7.376 -14.708,1.795c0,-1.611 4.394,-7.234 9.763,-12.505c21.688,-21.306 38.064,-47.785 45.581,-73.683c20.134,-69.474 -17.746,-145.701 -109.261,-219.95c-48.336,-39.194 -67.736,-67.99 -70.759,-104.994c-1.526,-18.778 2.387,-37.81 16.234,-78.7c17.068,-50.413 18.382,-64.062 8.689,-89.904c-4.676,-12.448 -16.799,-24.91 -27.919,-28.696c-29.798,-10.159 -72.228,9.325 -102.564,47.092c-44.295,55.133 -47.855,138.509 -9.184,215.513c8.534,17.012 21.985,38.093 25.447,39.915c1.441,0.763 9.848,3.349 18.693,5.737c8.845,2.388 24.754,7.629 35.365,11.642c64.387,24.359 100.968,54.836 112.342,93.55c3.278,11.162 3.306,32.892 0.056,45.679c-3.405,13.451 -13.451,33.303 -23.61,46.697c-4.648,6.104 -9.155,12.137 -10.046,13.409c-1.215,1.78 -0.268,3.335 4.027,6.584c10.202,7.729 26.422,25.277 31.946,34.546c12.703,21.349 16.828,45.199 10.739,62.027c-3.914,10.823 -14.116,23.158 -24.84,30.067c-5.298,3.405 -9.678,7.164 -9.72,8.365c-0.043,1.187 2.726,5.369 6.188,9.283c10.385,11.812 13.705,20.303 13.762,35.238c0.042,11.84 -0.48,14.016 -6.175,25.546c-14.863,30.052 -42.133,46.244 -89.635,53.238c-14.454,2.12 -25.291,2.501 -51.996,1.823c-34.899,-0.904 -54.213,-3.193 -85.99,-10.215c-23.313,-5.157 -21.688,-4.974 -21.688,-2.261c0,5.708 46.866,26.252 77.625,34.037c26.987,6.811 35.196,7.687 67.821,7.136c25.955,-0.438 31.762,-1.032 45.764,-4.72Zm-32.907,-48.35c18.51,-2.84 30.025,-6.188 41.936,-12.207c11.755,-5.935 17.393,-10.795 24.457,-21.152c12.462,-18.269 11.714,-31.07 -2.656,-45.355c-28.343,-28.159 -114.22,-49.791 -197.936,-49.862c-29.318,-0.028 -33.204,0.311 -44.196,3.759c-26.153,8.209 -43.617,20.77 -48.209,34.715c-4.691,14.214 1.639,37.937 12.815,48.04c21.039,18.989 79.166,37.428 136.644,43.306c15.994,1.653 63.214,0.876 77.145,-1.244Zm58.863,-119.18c11.147,-4.648 23.468,-13.945 28.032,-21.151c5.948,-9.368 6.951,-16.757 3.885,-28.4c-6.047,-22.96 -22.493,-41.483 -53.097,-59.78c-106.096,-63.455 -199.024,-73.727 -261.631,-28.923c-12.886,9.212 -29.021,25.305 -34.136,34.066c-8.703,14.821 -4.352,30.844 13.352,49.197c10.837,11.247 35.846,29.417 42.925,31.184c2.048,0.522 8.703,-0.608 14.765,-2.501c25.701,-7.997 73.401,-7.969 128.378,0.07c36.439,5.327 78.261,16.136 99.257,25.673c8.365,3.787 10.385,3.843 18.27,0.565Zm1181.09,-78.53c67.1,-10.879 117.23,-56.813 144.401,-132.32c4.168,-11.586 5.496,-20.374 2.911,-19.329c-0.735,0.297 -16.136,8.04 -34.278,17.21c-33.133,16.785 -38.205,18.297 -40.537,12.193c-1.469,-3.843 0.198,-6.075 9.001,-11.995c36.015,-24.232 76.764,-57.577 104.951,-85.864c30.689,-30.787 50.611,-56.898 66.733,-87.403c5.99,-11.317 7.573,-13.197 10.328,-12.405c11.12,3.193 18.1,2.769 31.989,-2.021c37.159,-12.815 71.197,-43.857 81.412,-74.277c2.784,-8.266 3.349,-12.787 2.685,-21.688c-1.498,-20.219 -9.99,-35.776 -31.381,-57.45l-13.875,-14.058l11.614,-11.699c6.386,-6.429 11.614,-12.957 11.614,-14.511c0,-7.347 -20.332,-40.918 -38.657,-63.808c-13.042,-16.276 -39.59,-42.599 -55.712,-55.245c-7.813,-6.132 -11.275,-9.862 -10.667,-11.473c1.37,-3.603 4.676,-2.953 16.531,3.292c34.659,18.213 73.585,62.692 89.48,102.239c5.652,14.031 7.093,15.302 11.812,10.272c4.931,-5.227 4.649,-10.201 -1.399,-25.432c-21.533,-54.186 -53.182,-94.256 -101.249,-128.195c-21.11,-14.892 -17.62,-18.113 7.092,-6.541c17.916,8.407 31.311,17.689 46.443,32.214c23.13,22.211 41.611,51.501 51.515,81.667c2.388,7.291 4.974,13.621 5.723,14.087c5.849,3.617 -0.198,-30.279 -9.75,-54.652c-18.664,-47.615 -51.232,-85.128 -111.875,-128.872l-5.086,-3.674l14.242,-21.462c32.271,-48.633 46.316,-80.466 41.54,-94.186c-3.363,-9.65 -18.382,-14.906 -51.303,-17.944c-24.076,-2.218 -42.247,-1.285 -82.699,4.281c-16.799,2.318 -34.913,3.928 -40.268,3.603c-17.817,-1.116 -33.698,-11.543 -77.852,-51.119c-23.666,-21.236 -37.301,-32.144 -40.127,-32.144c-0.593,0 -8.477,4.705 -17.534,10.47c-35.337,22.465 -49.043,27.311 -77.343,27.255c-24.288,-0.028 -34.334,-3.094 -60.021,-18.297c-20.445,-12.095 -29.262,-15.246 -39.83,-14.228c-11.685,1.116 -18.693,6.979 -41.131,34.334c-23.186,28.258 -46.654,51.557 -62.663,62.21c-13.747,9.142 -36.411,20.502 -48.689,24.416c-4.846,1.554 -10.145,3.956 -11.727,5.341c-4.126,3.602 -26.393,37.032 -36.27,54.425c-33.91,59.767 -56.192,131.614 -67.17,216.672c-4.069,31.465 -4.083,112.85 -0.028,143.03c23.525,175.089 115.407,300.895 254.523,348.525c41.13,14.087 77.414,20.148 129.876,21.688c34.433,1.017 35.365,1.131 35.846,4.451c0.296,2.091 -0.65,3.9 -2.416,4.677c-1.583,0.692 -19.541,1.582 -39.859,1.978c-28.739,0.565 -42.147,0.099 -60.275,-2.063c-29.742,-3.575 -29.276,-3.547 -30.124,-1.13c-0.974,2.825 31.099,17.802 53.437,24.98c16.235,5.214 36.623,9.735 50.625,11.233c14.2,1.526 42.303,0.89 55.471,-1.258Zm-1189.06,-64.203c17.266,-19.413 26.52,-39.971 27.495,-61.194c0.805,-17.506 -2.458,-27.82 -13.409,-42.387c-32.68,-43.476 -139.624,-82.557 -214.453,-78.389c-42.952,2.402 -74.503,13.776 -97.308,35.097c-33.429,31.282 -30.208,78.417 8.323,121.582l6.216,6.965l16.871,-8.138c42.67,-20.558 85.185,-24.203 139.822,-11.996c31.339,6.994 71.635,22.649 102.07,39.647c7.064,3.956 13.691,7.262 14.737,7.361c1.031,0.099 5.369,-3.758 9.636,-8.548Zm1401.03,-134.096c-0.776,2.407 -0.754,4.857 0.62,6.922c-1.387,-0.467 -2.238,-0.724 -2.425,-0.724c-0.254,0 -0.466,-1.073 -0.466,-2.416c0,-0.702 0.879,-2.113 2.271,-3.782Zm-429.778,-14.586c-8.012,-2.444 -17.62,-8.237 -23.215,-14.002c-5.863,-6.047 -7.898,-12.999 -3.264,-11.218c6.853,2.628 27.779,2.826 38.234,0.367c19.357,-4.549 32.088,-2.19 41.088,7.573c6.372,6.924 1.766,11.925 -15.005,16.291c-9.933,2.586 -30.816,3.123 -37.838,0.989Zm17.138,-57.972c-42.882,-4.069 -91.274,-21.547 -132.857,-48.025c-8.392,-5.341 -16.432,-9.749 -17.873,-9.777c-1.794,-0.029 -2.911,1.893 -3.603,6.174c-1.484,9.311 -4.38,10.88 -10.569,5.666c-6.414,-5.397 -16.799,-20.615 -22.183,-32.497c-5.566,-12.293 -5.934,-28.64 -0.833,-38.262c3.462,-6.542 23.709,-26.309 26.944,-26.309c0.947,0 1.653,4.055 1.653,9.509c0,14.822 1.668,16.037 38.531,28.287c78.685,26.139 163.093,20.092 248.801,-17.831c18.354,-8.124 46.217,-23.455 49.226,-27.086c1.611,-1.921 1.173,-4.38 -2.176,-12.773c-4.775,-11.925 -5.468,-20.275 -1.681,-20.275c10.554,0 67.919,47.672 76.538,63.596c11.501,21.292 9.085,58.014 -5.115,77.625c-5.51,7.602 -8.011,7.404 -8.011,-0.621c0,-9.665 -3.391,-21.646 -7.517,-26.549c-6.16,-7.319 -13.564,-6.641 -26.45,2.402c-48.746,34.221 -76.199,48.52 -112.271,58.495c-27.354,7.559 -63.228,10.837 -90.554,8.251Zm42.134,-26.591c61.49,-9.014 136.558,-39.35 164.308,-66.435c10.866,-10.597 12.943,-16.193 8.322,-22.409c-9.339,-12.561 -13.945,-11.869 -120.55,18.127c-43.829,12.335 -58.368,15.769 -71.522,16.927c-37.979,3.292 -120.056,-7.262 -162.754,-20.939c-18.99,-6.09 -23.935,-5.892 -24.614,0.96c-1.229,12.59 30.435,37.966 67.114,53.79c18.552,8.012 42.162,15.698 59.173,19.287c18.185,3.829 56.757,4.168 80.523,0.692Zm-52.829,-157.823c-7.927,-3.857 -18.368,-14.836 -30.548,-32.059c-24.811,-35.154 -23.779,-45.214 8.181,-78.785c31.635,-33.232 53.931,-63.68 70.505,-96.305c8.76,-17.251 17.647,-29.148 20.459,-27.396c7.206,4.451 -25.178,84.182 -48.35,119.081c-16.305,24.585 -20.53,33.486 -21.477,45.284c-0.989,12.278 1.102,18.764 10.428,32.54c13.606,20.091 15.952,28.611 9.961,36.227c-3.971,5.044 -10.71,5.539 -19.159,1.413Zm489.294,-35.351c-6.542,-11.346 -14.652,-20.841 -23.44,-27.397c-11.445,-8.548 -9.976,-12.928 2.585,-7.686c12.717,5.312 26.351,22.606 29.022,36.778c1.639,8.718 -2.685,7.828 -8.167,-1.695Zm111.42,-1.119c-0.074,0.443 -0.13,0.888 -0.163,1.335c-0.128,-0.498 -0.144,-0.854 -0.032,-1.036c0.044,-0.071 0.109,-0.171 0.195,-0.299Zm-75.913,-29.146c-16.15,-25.503 -34.377,-44.79 -54.44,-57.619c-16.461,-10.541 -7.616,-14.242 11.586,-4.846c18.241,8.943 37.061,28.428 47.234,48.929c8.181,16.503 10.046,24.458 5.92,25.32c-1.639,0.339 -5.228,-3.759 -10.3,-11.784Zm102.027,-76.623c15.966,-33.091 28.159,-74.447 34.8,-118.035c4.126,-26.987 3.674,-82.345 -0.834,-107.128c-9.65,-52.871 -28.442,-85.397 -66.958,-115.845c-43.97,-34.758 -82.515,-77.019 -122.514,-134.299c-10.202,-14.581 -20.799,-28.936 -23.54,-31.889c-9.028,-9.636 -12.122,-10.484 -39.575,-10.837c-39.124,-0.509 -49.043,-4.889 -83.575,-36.892c-34.079,-31.578 -47.149,-39.519 -65.079,-39.519c-24.302,0 -49.65,19.117 -83.39,62.875c-22.96,29.798 -34.377,38.573 -50.244,38.573c-8.435,0 -13.875,-2.275 -31.706,-13.31c-11.925,-7.375 -20.035,-8.661 -33.317,-5.256c-22.691,5.821 -39.674,17.803 -96.46,68.074c-27.311,24.161 -57.082,42.007 -78.346,46.938c-4.733,1.102 -13.098,1.653 -18.566,1.201c-25.319,-2.035 -41.356,-18.128 -50.017,-50.23c-4.197,-15.627 -6.514,-16.715 -13.607,-6.4c-19.809,28.781 -31.79,83.08 -27.467,124.436c3.956,37.654 16.927,63.666 37.358,74.814c7.276,3.97 10.809,4.79 23.073,5.327c17.718,0.777 29.473,-1.978 50.187,-11.756c31.903,-15.033 54.764,-35.125 84.577,-74.291c27.962,-36.75 39.887,-45.708 62.352,-46.782c14.737,-0.707 24.797,1.865 46.372,11.84c40.594,18.764 58.312,16.192 101.25,-14.68c24.995,-17.958 30.675,-20.615 44.196,-20.615c20.982,0 34.885,10.696 66.69,51.346c20.276,25.913 35.917,41.78 45.807,46.471c8.365,3.97 18.184,2.911 57.944,-6.273c38.488,-8.888 57.803,-11.177 84.295,-10.004c38.431,1.71 60.699,12.264 71.903,34.066c5.016,9.735 6.528,26.252 3.688,39.929c-4.097,19.738 -21.462,47.997 -47.333,77.089c-6.697,7.531 -12.193,14.454 -12.193,15.372c0,0.919 5.242,5.85 11.656,10.95c52.462,41.781 90.71,98.396 100.77,149.163c4.182,21.123 5.652,20.755 17.803,-4.423Zm-356.904,-7.008c-35.86,-28.866 -55.485,-38.559 -85.863,-42.402c-13.918,-1.766 -17.888,-4.097 -16.178,-9.495c1.384,-4.351 9.777,-8.618 27.651,-14.044c11.798,-3.589 17.435,-4.324 33.472,-4.451c18.029,-0.127 19.95,0.17 29.332,4.493c20.657,9.552 31.565,28.216 35.055,59.965c2.444,22.168 -1.95,23.271 -23.469,5.934Zm-388.85,2.826c-18.043,-18.99 -14.044,-77.188 6.612,-95.839c11.177,-10.116 22.099,-5.694 28.937,11.699c5.185,13.169 5.299,42.784 0.24,59.018c-4.422,14.158 -11.783,25.404 -18.806,28.739c-7.969,3.787 -10.427,3.25 -16.983,-3.617Zm-86.188,-164.21c6.09,-11.459 16.022,-28.484 22.084,-37.81c6.075,-9.339 11.063,-17.986 11.063,-19.229c0,-1.286 -2.897,-3.024 -6.839,-4.07c-15.966,-4.253 -32.355,-16.432 -43.998,-32.723c-4.366,-6.09 -7.418,-4.846 -12.42,5.002c-6.513,12.886 -9.085,24.118 -9.085,39.816c0,17.647 2.826,29.403 11.29,47.206c7.304,15.316 12.207,22.762 14.948,22.705c1.046,-0.014 6.867,-9.424 12.957,-20.897Zm502.463,11.346c-12.505,-15.797 -45.002,-40.918 -59.512,-46.005c-10.626,-3.73 -11.982,-4.648 -12.547,-8.463c-0.721,-4.748 7.192,-12.307 15.457,-14.779c16.687,-5.002 30.901,9.396 54.214,54.991c4.945,9.664 8.732,18.382 8.407,19.342c-0.311,0.975 -3.038,-1.314 -6.019,-5.086Zm-421.107,-27.043c0,-2.007 13.705,-18.001 21.349,-24.938c12.264,-11.078 23.794,-14.963 31.762,-10.696c4.126,2.204 7.955,9.876 7.955,15.923l0,4.889l-11.755,-0.226c-12.279,-0.226 -10.371,-0.834 -44.083,14.059c-2.883,1.271 -5.228,1.723 -5.228,0.989Z" style="fill:#3bed86;"/></svg>